# 3ds Max Wavefront OBJ Exporter v0.97b - (c)2007 guruware
# File Created: 11.10.2017 18:26:42

mtllib test.mtl

#
# object Plane001
#

#
# object Torus001
#

v  -0.0000 -0.2217 -33.4401
v  -0.0000 3.5812 -27.6213
v  17.8221 3.6324 -21.2395
v  21.4897 -0.3382 -25.6104
v  -0.0000 -3.3595 -27.2373
v  17.4456 -3.2942 -20.7909
v  27.4098 3.6805 -4.8331
v  32.9127 -0.4543 -5.8034
v  26.6348 -3.2261 -4.6964
v  24.1970 3.7254 13.9702
v  28.9300 -0.5701 16.7028
v  23.3419 -3.1553 13.4764
v  9.5934 3.7673 26.3577
v  11.4191 -0.6854 31.3738
v  9.1874 -3.0819 25.2422
v  -9.6311 3.8059 26.4612
v  -11.4117 -0.8001 31.3535
v  -9.1571 -3.0058 25.1590
v  -24.4831 3.8414 14.1353
v  -28.8739 -0.9142 16.6704
v  -23.1119 -2.9272 13.3436
v  -27.9517 3.8735 -4.9286
v  -32.8064 -1.0274 -5.7847
v  -26.1992 -2.8461 -4.6196
v  -18.3169 3.9024 -21.8292
v  -21.3926 -1.1398 -25.4947
v  -17.0478 -2.7626 -20.3168
# 27 vertices

vn -0.0276 -0.0478 -0.9985
vn -0.0401 0.9597 0.2780
vn -0.1569 0.9699 0.1863
vn 0.6411 -0.0717 -0.7641
vn -0.0459 -0.9215 0.3856
vn -0.2642 -0.9114 0.3155
vn -0.2112 0.9768 0.0368
vn 0.9802 -0.0964 -0.1728
vn -0.4332 -0.8980 0.0769
vn -0.1601 0.9827 -0.0930
vn 0.8596 -0.1211 0.4963
vn -0.4057 -0.8836 -0.2337
vn -0.0529 0.9878 -0.1467
vn 0.3383 -0.1456 0.9297
vn -0.1701 -0.8683 -0.4660
vn 0.0438 0.9919 -0.1191
vn -0.3371 -0.1701 0.9260
vn 0.1787 -0.8519 -0.4923
vn 0.0849 0.9952 -0.0485
vn -0.8495 -0.1945 0.4904
vn 0.4769 -0.8345 -0.2759
vn 0.0677 0.9976 0.0124
vn -0.9609 -0.2188 -0.1695
vn 0.5691 -0.8162 0.0999
vn 0.0601 0.9982 0.0074
vn -0.6021 -0.2433 -0.7604
vn 0.4249 -0.7926 0.4373
# 27 vertex normals

vt 0.0000 0.0000 0.0000
vt 0.3333 0.0000 0.0000
vt 0.3333 0.1111 0.0000
vt 0.0000 0.1111 0.0000
vt 0.6667 0.0000 0.0000
vt 0.6667 0.1111 0.0000
vt 1.0000 0.0000 0.0000
vt 1.0000 0.1111 0.0000
vt 0.3333 0.2222 0.0000
vt 0.0000 0.2222 0.0000
vt 0.6667 0.2222 0.0000
vt 1.0000 0.2222 0.0000
vt 0.3333 0.3333 0.0000
vt 0.0000 0.3333 0.0000
vt 0.6667 0.3333 0.0000
vt 1.0000 0.3333 0.0000
vt 0.3333 0.4444 0.0000
vt 0.0000 0.4444 0.0000
vt 0.6667 0.4444 0.0000
vt 1.0000 0.4444 0.0000
vt 0.3333 0.5556 0.0000
vt 0.0000 0.5556 0.0000
vt 0.6667 0.5556 0.0000
vt 1.0000 0.5556 0.0000
vt 0.3333 0.6667 0.0000
vt 0.0000 0.6667 0.0000
vt 0.6667 0.6667 0.0000
vt 1.0000 0.6667 0.0000
vt 0.3333 0.7778 0.0000
vt 0.0000 0.7778 0.0000
vt 0.6667 0.7778 0.0000
vt 1.0000 0.7778 0.0000
vt 0.3333 0.8889 0.0000
vt 0.0000 0.8889 0.0000
vt 0.6667 0.8889 0.0000
vt 1.0000 0.8889 0.0000
vt 0.3333 1.0000 0.0000
vt 0.0000 1.0000 0.0000
vt 0.6667 1.0000 0.0000
vt 1.0000 1.0000 0.0000
# 40 texture coords

g Torus001
usemtl wire_184228153
s 1
f 1/1/1 2/2/2 3/3/3 4/4/4 
f 2/2/2 5/5/5 6/6/6 3/3/3 
f 5/5/5 1/7/1 4/8/4 6/6/6 
f 4/4/4 3/3/3 7/9/7 8/10/8 
f 3/3/3 6/6/6 9/11/9 7/9/7 
f 6/6/6 4/8/4 8/12/8 9/11/9 
f 8/10/8 7/9/7 10/13/10 11/14/11 
f 7/9/7 9/11/9 12/15/12 10/13/10 
f 9/11/9 8/12/8 11/16/11 12/15/12 
f 11/14/11 10/13/10 13/17/13 14/18/14 
f 10/13/10 12/15/12 15/19/15 13/17/13 
f 12/15/12 11/16/11 14/20/14 15/19/15 
f 14/18/14 13/17/13 16/21/16 17/22/17 
f 13/17/13 15/19/15 18/23/18 16/21/16 
f 15/19/15 14/20/14 17/24/17 18/23/18 
f 17/22/17 16/21/16 19/25/19 20/26/20 
f 16/21/16 18/23/18 21/27/21 19/25/19 
f 18/23/18 17/24/17 20/28/20 21/27/21 
f 20/26/20 19/25/19 22/29/22 23/30/23 
f 19/25/19 21/27/21 24/31/24 22/29/22 
f 21/27/21 20/28/20 23/32/23 24/31/24 
f 23/30/23 22/29/22 25/33/25 26/34/26 
f 22/29/22 24/31/24 27/35/27 25/33/25 
f 24/31/24 23/32/23 26/36/26 27/35/27 
f 26/34/26 25/33/25 2/37/2 1/38/1 
f 25/33/25 27/35/27 5/39/5 2/37/2 
f 27/35/27 26/36/26 1/40/1 5/39/5 
# 27 polygons

